{"title":"Meeting Evil 2012 DVDRip XviD -DTeCH","uid":7438843,"size":1501885060,"categoryP":"video","categoryS":"movies","magnet":"?xt=urn:btih:c3e2c0a72c7910decf104d7dc7a7a4512eac1fe8&amp;dn=Meeting+Evil+2012+DVDRip+XviD+-DTeCH&amp;tr=udp%3A%2F%2Ftracker.openbittorrent.com%3A80&amp;tr=udp%3A%2F%2Fopen.demonii.com%3A1337&amp;tr=udp%3A%2F%2Ftracker.coppersurfer.tk%3A6969&amp;tr=udp%3A%2F%2Fexodus.desync.com%3A6969","seeders":0,"leechers":0,"uploader":"tykoon123","files":-1,"time":1342165100,"description":"Cover: &lt;a href=&quot;\nhttp://imgh.us/oWmD9ctt.jpeg&quot; rel=&quot;nofollow&quot; target=&quot;_NEW&quot;&gt;\nhttp://imgh.us/oWmD9ctt.jpeg&lt;/a&gt;\n\nInfo:\n\nFormat : AVI\nFormat/Info : Audio Video Interleave\nFormat profile : OpenDML\nFile size : 1.40 GiB\nDuration : 1h 28mn\nOverall bit rate : 2 253 Kbps\nWriting application : MEncoder version Beta 4.4.5 building on 20110111\n\nVideo\nID : 0\nFormat : MPEG-4 Visual\nFormat profile : Simple@L1\nFormat settings, BVOP : No\nFormat settings, QPel : No\nFormat settings, GMC : No warppoints\nFormat settings, Matrix : Default (H.263)\nCodec ID : DX50\nCodec ID/Hint : DivX 5\nDuration : 1h 28mn\nBit rate : 1 798 Kbps\nWidth : 720 pixels\nHeight : 404 pixels\nDisplay aspect ratio : 16:9\nFrame rate : 29.970 fps\nColor space : YUV\nChroma subsampling : 4:2:0\nBit depth : 8 bits\nScan type : Progressive\nCompression mode : Lossy\nBits/(Pixel*Frame) : 0.206\nStream size : 1.12 GiB (80%)\nWriting library : DigiArty AV Encoder Core\n\nAudio\nID : 1\nFormat : AC-3\nFormat/Info : Audio Coding 3\nMode extension : CM (complete main)\nFormat settings, Endianness : Big\nCodec ID : 2000\nDuration : 1h 28mn\nBit rate mode : Constant\nBit rate : 448 Kbps\nChannel(s) : 6 channels\nChannel positions : Front: L C R, Side: L R, LFE\nSampling rate : 48.0 KHz\nBit depth : 16 bits\nCompression mode : Lossy\nStream size : 285 MiB (20%)\nAlignment : Split accross interleaves\nInterleave, duration : 500 ms (14.98 video frames)\nInterleave, preload duration : 500 ms\n\n\nSCREENS: &lt;a href=&quot;\nhttp://imgh.us/Meeting_Evil_2012_DVDRip_XviD_-DTeCH-002.jpg&quot; rel=&quot;nofollow&quot; target=&quot;_NEW&quot;&gt;\nhttp://imgh.us/Meeting_Evil_2012_DVDRip_XviD_-DTeCH-002.jpg&lt;/a&gt; &lt;a href=&quot;\nhttp://imgh.us/Meeting_Evil_2012_DVDRip_XviD_-DTeCH-003.jpg&quot; rel=&quot;nofollow&quot; target=&quot;_NEW&quot;&gt;\nhttp://imgh.us/Meeting_Evil_2012_DVDRip_XviD_-DTeCH-003.jpg&lt;/a&gt; &lt;a href=&quot;\nhttp://imgh.us/Meeting_Evil_2012_DVDRip_XviD_-DTeCH-004.jpg&quot; rel=&quot;nofollow&quot; target=&quot;_NEW&quot;&gt;\nhttp://imgh.us/Meeting_Evil_2012_DVDRip_XviD_-DTeCH-004.jpg&lt;/a&gt; &lt;a href=&quot;\nhttp://imgh.us/Meeting_Evil_2012_DVDRip_XviD_-DTeCH-005.jpg&quot; rel=&quot;nofollow&quot; target=&quot;_NEW&quot;&gt;\nhttp://imgh.us/Meeting_Evil_2012_DVDRip_XviD_-DTeCH-005.jpg&lt;/a&gt; &lt;a href=&quot;\nhttp://imgh.us/Meeting_Evil_2012_DVDRip_XviD_-DTeCH-012.jpg&quot; rel=&quot;nofollow&quot; target=&quot;_NEW&quot;&gt;\nhttp://imgh.us/Meeting_Evil_2012_DVDRip_XviD_-DTeCH-012.jpg&lt;/a&gt; &lt;a href=&quot;\nhttp://imgh.us/Meeting_Evil_2012_DVDRip_XviD_-DTeCH-013.jpg&quot; rel=&quot;nofollow&quot; target=&quot;_NEW&quot;&gt;\nhttp://imgh.us/Meeting_Evil_2012_DVDRip_XviD_-DTeCH-013.jpg&lt;/a&gt; &lt;a href=&quot;\nhttp://imgh.us/Meeting_Evil_2012_DVDRip_XviD_-DTeCH-015.jpg&quot; rel=&quot;nofollow&quot; target=&quot;_NEW&quot;&gt;\nhttp://imgh.us/Meeting_Evil_2012_DVDRip_XviD_-DTeCH-015.jpg&lt;/a&gt; &lt;a href=&quot;\nhttp://imgh.us/Meeting_Evil_2012_DVDRip_XviD_-DTeCH-016.jpg&quot; rel=&quot;nofollow&quot; target=&quot;_NEW&quot;&gt;\nhttp://imgh.us/Meeting_Evil_2012_DVDRip_XviD_-DTeCH-016.jpg&lt;/a&gt; &lt;a href=&quot;\nhttp://imgh.us/Meeting_Evil_2012_DVDRip_XviD_-DTeCH-018.jpg&quot; rel=&quot;nofollow&quot; target=&quot;_NEW&quot;&gt;\nhttp://imgh.us/Meeting_Evil_2012_DVDRip_XviD_-DTeCH-018.jpg&lt;/a&gt;\n\n\n\n\n","torrent":{"xt":"urn:btih:c3e2c0a72c7910decf104d7dc7a7a4512eac1fe8","amp;dn":"Meeting+Evil+2012+DVDRip+XviD+-DTeCH","amp;tr":["udp%3A%2F%2Ftracker.openbittorrent.com%3A80","udp%3A%2F%2Fopen.demonii.com%3A1337","udp%3A%2F%2Ftracker.coppersurfer.tk%3A6969","udp%3A%2F%2Fexodus.desync.com%3A6969"],"infoHash":"c3e2c0a72c7910decf104d7dc7a7a4512eac1fe8","infoHashBuffer":{"type":"Buffer","data":[195,226,192,167,44,121,16,222,207,16,77,125,199,167,164,81,46,172,31,232]},"announce":[],"urlList":[]}}